<svg xmlns="http://www.w3.org/2000/svg">
  <style> :root svg:not(:target) { display: none } </style>
    <!--Иконка поиска-->
    <svg  id="icon-search" aria-hidden="true" focusable="false" width="18" height="18" viewBox="0 0 18 18" xmlns="http://www.w3.org/2000/svg">
      <path d="m17.693 16.057-3.477-3.477c1.023-1.33 1.534-2.966 1.534-4.705C15.75 3.477 12.273 0 7.875 0S0 3.477 0 7.875s3.477 7.875 7.875 7.875c1.739 0 3.375-.614 4.704-1.534l3.478 3.477c.204.205.409.307.818.307.614 0 1.125-.511 1.125-1.125 0-.204-.102-.511-.307-.818ZM2.25 7.875c0-3.068 2.557-5.625 5.625-5.625S13.5 4.807 13.5 7.875 10.943 13.5 7.875 13.5 2.25 10.943 2.25 7.875Z"/>
    </svg>

    <!--Иконка корзины-->
    <svg id="icon-cart" aria-hidden="true" focusable="false" width="21" height="18" viewBox="0 0 21 18" xmlns="http://www.w3.org/2000/svg">
      <path d="M20.188 6.857h-3.55L13.188.381C12.985 0 12.58-.095 12.174.095s-.507.572-.304.953l3.145 5.81H5.783l3.145-5.81c.202-.381 0-.762-.305-.953-.406-.19-.811 0-1.014.286l-3.45 6.476H.812c-.406 0-.812.286-.812.762 0 .381.304.762.812.762h.202l.914 2.857c-.203.095-.305.286-.305.572 0 .38.305.666.71.666L4.058 18h12.884l1.725-5.524c.405 0 .71-.286.71-.667 0-.19-.102-.476-.304-.57l.912-2.858h.203c.406 0 .812-.286.812-.762 0-.476-.406-.762-.812-.762Zm-4.565 9.62H5.073L3.854 12.38h13.087l-1.319 4.095Zm1.623-5.525H3.348l-.812-2.666h15.522l-.812 2.666Z"/>
    </svg>

    <!--Иконка меню-->
    <svg id="icon-menu" width="20" height="14" viewBox="0 0 20 14" xmlns="http://www.w3.org/2000/svg">
      <path d="M20 0H0v2h20V0zM20 6H0v2h20V6zM20 12H0v2h20v-2z"/>
    </svg>

    <!--Иконка закрытия меню-->
    <svg width="21" height="20" viewBox="0 0 21 20"  xmlns="http://www.w3.org/2000/svg">
      <path d="M21 1.366L19.566 0 10.55 8.585 1.434 0 0 1.366l9.015 8.683L0 18.634 1.434 20l9.117-8.585L19.566 20 21 18.634l-9.015-8.585L21 1.366z"/>
    </svg>

    <!--Иконка предметы интерьера-->
    <svg id="icon-interior" viewBox="0 0 40 62" xmlns="http://www.w3.org/2000/svg">
    <g>
      <path d="M15.162 37.717c-.3.995-.2 2.19 0 3.582.499 2.588 1.696 5.971 2.394 9.654h5.087c.698-3.583 1.895-6.967 2.494-9.654.3-1.393.3-2.687 0-3.582-.3-.896-.898-1.593-1.995-2.29h-5.985c-1.197.697-1.796 1.394-1.995 2.29zM26.933 57.621H13.167c-1.297 0-2.294.995-2.294 2.19V62h18.354v-2.19c0-1.194-.998-2.189-2.294-2.189zM34.015 2.19h-11.67C22.344.994 21.346 0 20.05 0s-2.294.995-2.294 2.19H6.085L0 27.566c.798-.498 1.596-.995 2.594-.995 1.396 0 2.194.796 2.892 1.393.699.597 1.197.796 1.397.796.299 0 .798-.299 1.496-.796.698-.498 1.596-1.393 2.893-1.393 1.297 0 2.194.796 2.893 1.393.698.497 1.197.796 1.496.796.1 0 .3-.1.598-.199.2-.1.5-.398.898-.597.499-.398 1.097-.995 1.995-1.194.3-.1.599-.1.898-.1 1.297 0 2.194.796 2.893 1.393.698.498 1.197.797 1.496.797.3 0 .798-.299 1.396-.797.699-.597 1.596-1.393 2.893-1.393 1.397 0 2.195.796 2.893 1.393.3.299.598.498.898.598.2.1.399.199.598.199.3 0 .798-.299 1.397-.896.698-.597 1.596-1.393 2.892-1.393.998 0 1.796.497 2.594.995L34.015 2.189zM23.442 53.143h-6.883c-.699 0-1.098.497-1.098 1.094 0 .597.5 1.095 1.098 1.095h6.883c.698 0 1.097-.498 1.097-1.095.1-.597-.4-1.094-1.098-1.094z"/>
      <path d="M20.05 28.76c-.1 0-.3.1-.599.199-.2.1-.399.298-.598.398v3.682h2.294v-3.583c-.499-.398-.898-.696-1.097-.696z"/>
    </g>
    </svg>

    <!--Иконка детские игрушки-->
    <svg id="icon-toys" viewBox="0 0 60 60" xmlns="http://www.w3.org/2000/svg">
      <path d="M0 43.993L27.4 60V36.544L0 20.436v23.557zm51.3-31.51V15c0 1.812-3.5 3.322-7.7 3.322-4.3 0-7.7-1.51-7.7-3.322v-4.127c.3 1.71 3.6 3.12 7.7 3.12 4.3 0 7.7-1.51 7.7-3.322S47.8 7.35 43.6 7.35h-1l-5-2.92V7.55c0 1.812-3.5 3.323-7.7 3.323-2.7 0-5-.604-6.4-1.51-.2-.202-.4-.403-.7-.605-.4-.402-.6-.805-.6-1.208V4.53L17.4 7.35h-1.1c-4.3 0-7.7 1.51-7.7 3.322s3.5 3.322 7.7 3.322c4.1 0 7.4-1.41 7.7-3.12V15c0 1.812-3.5 3.322-7.7 3.322-4.3 0-7.7-1.51-7.7-3.322v-2.416l-6 3.523 27.5 16.108 27.4-16.007-6.2-3.725zM37.7 22.752c0 1.812-3.5 3.322-7.7 3.322-4.3 0-7.7-1.51-7.7-3.322v-4.128c.3 1.712 3.6 3.121 7.7 3.121s7.4-1.41 7.7-3.12v4.127zm-5.1 13.993V60L60 43.993V20.738L32.6 36.745zm-2.7-30.1c4.3 0 7.7-1.51 7.7-3.323C37.6 1.51 34.1 0 29.9 0c-4.3 0-7.7 1.51-7.7 3.322s3.4 3.322 7.7 3.322z"/>
    </svg>

    <!--Иконка цветок-->
    <svg id="icon-interior" width="33" height="38" viewBox="0 0 33 38" xmlns="http://www.w3.org/2000/svg">
      <path d="M16.5 38C25.575 38 33 30.645 33 21.656c-9.075 0-16.5 7.253-16.5 16.344zM4.744 16.65c0 2.554 2.062 4.495 4.537 4.495.928 0 1.856-.306 2.578-.817v.306c0 2.554 2.063 4.495 4.538 4.495 2.578 0 4.537-2.043 4.537-4.495v-.306c.722.51 1.65.817 2.578.817 2.579 0 4.538-2.043 4.538-4.494 0-1.84-1.031-3.371-2.578-4.086 1.547-.715 2.578-2.248 2.578-4.087 0-2.553-2.063-4.494-4.538-4.494-.928 0-1.856.306-2.578.817v-.306C20.934 1.94 18.872 0 16.397 0c-2.578 0-4.538 2.043-4.538 4.495V4.8a4.542 4.542 0 0 0-2.578-.817c-2.578 0-4.537 2.043-4.537 4.494 0 1.84 1.031 3.372 2.578 4.087-1.444.715-2.578 2.247-2.578 4.086zM16.5 7.969c2.578 0 4.538 2.043 4.538 4.494 0 2.554-2.063 4.495-4.538 4.495-2.578 0-4.537-2.043-4.537-4.495 0-2.451 1.959-4.494 4.537-4.494zM0 21.656C0 30.646 7.425 38 16.5 38c0-9.091-7.425-16.344-16.5-16.344z"/>
    </svg>

    <!--Иконка банкноты-->
    <svg id="icon-interior" width="47" height="27" viewBox="0 0 47 27" xmlns="http://www.w3.org/2000/svg">
      <path d="M43.0665 0H3.93347C1.71459 0 0 1.68132 0 3.85714V23.1429C0 25.3187 1.71459 27 3.93347 27H43.0665C45.2854 27 47 25.3187 47 23.1429V3.85714C47 1.78022 45.1845 0 43.0665 0ZM3.02575 24.7253V2.76923H43.5708V24.7253H3.02575Z"/>
      <path d="M6.95925 20.8683H39.6374V6.62659H6.95925V20.8683ZM23.5 8.50571C26.4249 8.50571 28.8455 10.8793 28.8455 13.7475C28.8455 16.6156 26.4249 18.9892 23.5 18.9892C20.5751 18.9892 18.1545 16.6156 18.1545 13.7475C18.1545 10.7804 20.5751 8.50571 23.5 8.50571Z"/>
    </svg>

    <!--Иконка сердце-->
    <svg id="icon-interior" width="34" height="27" viewBox="0 0 34 27" xmlns="http://www.w3.org/2000/svg">
      <path d="M34 8.45C34 3.788 29.982 0 25.036 0A9.248 9.248 0 0 0 17 4.662C15.558 1.942 12.467 0 8.964 0 4.018 0 0 3.788 0 8.45 0 17.288 15.146 27 17 27c1.958 0 17-9.615 17-18.55z"/>
    </svg>

    <!--Иконка клубок-->
    <svg id="icon-interior" width="35" height="34" viewBox="0 0 35 34" xmlns="http://www.w3.org/2000/svg">
      <path d="M.306 13.953a16.044 16.044 0 0 0 0 6.232l4.176-3.165-4.176-3.067zM24.852 1.586C19.963-.59 14.259-.59 9.269 1.982l7.638 5.54 7.945-5.936zM34.528 13.062l-4.889 3.66 4.99 3.66c.51-2.373.51-4.946-.101-7.32zM9.37 32.057c4.89 2.473 10.899 2.671 15.991.099l-8.25-6.035-7.74 5.936zM8.046 14.249L1.732 9.698c-.306.692-.612 1.385-.815 2.078l5.398 3.957 1.731-1.484zM18.945 24.835l8.453 6.134c.306-.198.611-.396.815-.594.306-.198.611-.495.917-.791l-8.454-6.134-1.731 1.385zM11.611 11.578L4.074 6.137c-.51.495-.917 1.088-1.324 1.682l7.028 5.144 1.833-1.385zM22.51 22.163l8.25 6.035c.509-.494.916-1.088 1.324-1.681l-7.843-5.739-1.732 1.386zM15.176 8.907L7.333 3.169c-.203.099-.407.297-.61.396-.408.296-.816.593-1.121.989l7.843 5.64 1.731-1.287zM26.074 19.394l7.13 5.144c.306-.692.611-1.286.917-1.979l-6.213-4.55-1.834 1.385zM26.89 2.674L.916 22.362c.203.692.509 1.385.815 2.077L28.722 3.96c-.509-.494-1.12-.89-1.833-1.286zM31.269 6.532c-.306-.395-.611-.791-.917-1.088L2.852 26.22c.204.494.51.89.815 1.187.102.198.305.396.407.494L31.778 7.127c-.204-.198-.305-.396-.51-.594zM32.898 8.907L5.704 29.484c.509.495 1.12.99 1.731 1.385l26.482-19.984c-.306-.692-.611-1.385-1.019-1.978z"/>
    </svg>

    <!--Иконка ракета-->
    <svg id="icon-interior" width="55" height="23" viewBox="0 0 55 23" xmlns="http://www.w3.org/2000/svg">
      <path d="M40.9467 5.75002C37.307 4.75864 33.0607 4.06466 28.41 4.06466C25.478 4.06466 22.8493 4.26294 20.625 4.65949L13.75 0H0.10114L5.9651 6.14656H14.4577C9.80697 7.73277 7.58272 9.61639 7.58272 9.61639V13.3836C7.58272 13.3836 9.90811 15.2672 14.5588 16.8534H5.86396L0 23H13.6489L20.5239 18.3405C22.8492 18.7371 25.3768 18.9354 28.3088 18.9354C32.8584 18.9354 37.1048 18.2414 40.8456 17.25C39.6324 15.4655 38.9246 13.5819 38.9246 11.4009C39.0257 9.4181 39.8345 7.5345 40.9467 5.75002Z" fill="#63D1BB"/>
      <path d="M44.4853 6.74121C43.1709 8.32742 42.4632 9.91361 42.4632 11.4998C42.4632 13.086 43.1709 14.6722 44.4853 16.2585C50.9559 14.0774 55 11.4998 55 11.4998C55 11.4998 50.9559 8.92224 44.4853 6.74121Z"/>
    </svg>

    <!--Иконка подарок-->
    <svg id="icon-interior" width="33" height="32" viewBox="0 0 33 32" xmlns="http://www.w3.org/2000/svg">
      <path d="M3.02752 32H15.6422V18.2716H3.02752V32ZM31.3853 8.69136H24.0183C24.5229 8.39506 25.0275 8.19753 25.4312 7.90123C27.0459 6.81481 27.8532 5.33333 27.8532 3.95062C27.8532 2.76543 27.2477 1.77777 26.4404 1.08641C25.633 0.395053 24.5229 0 23.4128 0C22.2018 0 20.9908 0.395053 20.0826 1.08641C18.5688 2.07406 17.4587 3.55555 16.6514 5.1358C16.6514 5.23456 16.5505 5.33333 16.5505 5.33333C16.2477 4.74073 15.945 4.14814 15.5413 3.55555C14.8349 2.56789 14.0275 1.679 13.0183 1.08641C12.0092 0.493818 10.8991 0 9.68807 0C8.47706 0 7.36697 0.49383 6.45871 1.28395C5.65137 2.07408 5.04587 3.16049 5.04587 4.34567C5.04587 5.03703 5.2477 5.82715 5.65137 6.51851C6.25687 7.4074 7.06422 8.09877 8.27523 8.69136H1.61467C0.706413 8.69136 0 9.38271 0 10.2716V16.0988H15.5413V8.69136H17.4587V16.0988H33V10.2716C33 9.38271 32.2936 8.69136 31.3853 8.69136ZM8.88073 6.41975C8.27522 6.02469 7.87155 5.62962 7.66972 5.33333C7.46788 4.93826 7.36696 4.64197 7.36696 4.34567C7.36696 3.85184 7.56881 3.35802 8.0734 2.86419C8.47707 2.46913 9.08256 2.17284 9.68807 2.17284C10.3945 2.17284 11.1009 2.37036 11.7064 2.86419C12.7156 3.55555 13.7248 4.64196 14.3303 6.02468C14.633 6.71604 14.9358 7.4074 15.1376 8.09876C12.0092 7.80246 9.99082 7.11111 8.88073 6.41975ZM19.4771 4.8395C20.0826 4.04938 20.6881 3.35802 21.3945 2.96296C22.1009 2.46914 22.8073 2.27161 23.4128 2.27161C24.0183 2.27161 24.5229 2.46914 24.9266 2.76543C25.3303 3.06173 25.5321 3.45679 25.5321 3.95062C25.5321 4.44444 25.2294 5.23456 24.0183 6.02468C22.9083 6.8148 20.8899 7.7037 17.8624 8.29629C18.1651 7.1111 18.7706 5.82715 19.4771 4.8395ZM17.4587 32H30.0734V18.2716H17.4587V32Z"/>
    </svg>


    <!--Иконка стрелка влево-->
    <svg id="icon-interior" width="50" height="26" viewBox="0 0 50 26" xmlns="http://www.w3.org/2000/svg">
      <path d="M50 11H7.7L15.8 2.8L13 0L0 13L13 26L15.8 23.2L7.7 15H50V11Z"/>
    </svg>


    <!--Иконка флажок-->
    <svg id="icon-interior" width="47" height="81" viewBox="0 0 47 81" xmlns="http://www.w3.org/2000/svg">
      <path d="M7.76611 3.86183V42.3812L47 23.072L7.76611 3.86183ZM0 80.9005V0H3.83261V80.9005H0Z" fill="#63D1BB"/>
      <path d="M3.83262 0.0996094H0V81.0001H3.83262V0.0996094Z" fill="#231F20"/>
    </svg>


    <!--Иконка ВК-->
    <svg id="icon-vk" viewBox="0 0 29 22" fill="none" xmlns="http://www.w3.org/2000/svg">
      <g clip-path="url(#clip0_39117_13)"><path d="M1.741 5.339c0-.855.515-1.316 1.546-1.383l3.97.025a.52.52 0 0 1 .532.377c.409 1.257.866 2.343 1.372 3.257.507.913 1.168 1.965 1.985 3.156.071.15.187.226.347.226.124 0 .222-.059.293-.176l.08-.277.026-4.35c0-.302-.075-.503-.226-.604-.151-.1-.43-.176-.84-.226-.32-.05-.479-.235-.479-.553 0-.067.009-.118.027-.151.373-1.09 1.438-1.635 3.197-1.635L15.063 3c.675 0 1.234.16 1.678.478.444.318.666.821.666 1.509v5.708c.125.084.24.126.347.126.266 0 .497-.15.692-.453 1.954-2.582 3.011-4.308 3.171-5.18 0-.017.018-.059.053-.126.125-.251.329-.47.613-.654.284-.184.533-.31.746-.377a.555.555 0 0 1 .24-.05h4.13l.266.025c.355 0 .63.16.826.478.071.1.12.21.147.327.026.117.044.234.053.352.009.117.013.184.013.2v.177c-.124.687-.44 1.42-.946 2.2-.506.78-1.15 1.622-1.931 2.528-.782.905-1.27 1.5-1.466 1.785-.16.201-.24.386-.24.553 0 .135.072.286.214.453l3.89 4.627c.213.269.32.562.32.88 0 .386-.16.705-.48.956-.32.252-.702.394-1.146.428l-.453.025h-4.05a.855.855 0 0 0-.106.012.862.862 0 0 1-.107.013c-.39 0-.755-.16-1.092-.478-.125-.134-.96-1.123-2.505-2.967a1.387 1.387 0 0 0-.373-.327c-.07.268-.164.654-.28 1.157-.115.503-.2.863-.252 1.081l-.08.427c-.178.587-.551.94-1.12 1.057l-.372.025h-2.612c-1.474 0-2.944-.637-4.409-1.911-1.465-1.275-2.784-2.922-3.956-4.942-1.173-2.02-2.265-4.372-3.278-7.054a1.916 1.916 0 0 1-.133-.73zm16.013 6.513c-.373 0-.71-.096-1.013-.29-.302-.192-.453-.456-.453-.791V4.987c0-.336-.088-.575-.266-.717-.178-.143-.488-.214-.932-.214l-1.52.05c-.763 0-1.34.126-1.731.378.781.352 1.172.922 1.172 1.71v4.426a1.5 1.5 0 0 1-.533 1.044 1.59 1.59 0 0 1-1.065.414c-.533 0-.942-.243-1.226-.729-1.385-1.978-2.416-3.856-3.09-5.633l-.24-.654-3.544-.025c-.23 0-.36.013-.386.038-.027.025-.04.096-.04.213 0 .151.018.31.053.478l.56 1.409c1.492 3.638 3.112 6.505 4.862 8.6 1.75 2.096 3.468 3.144 5.155 3.144h2.665c.106 0 .186-.03.24-.088.053-.06.097-.172.133-.34l.053-.251.506-2.213c.142-.302.267-.503.373-.604a.976.976 0 0 1 .693-.277c.426 0 .862.243 1.306.73l2.264 2.716c.142.218.293.327.453.327H26.6c.533 0 .8-.126.8-.378a.466.466 0 0 0-.08-.251l-3.863-4.552c-.302-.352-.453-.73-.453-1.131 0-.403.142-.788.426-1.157.23-.336.68-.893 1.345-1.673A37.63 37.63 0 0 0 26.52 7.59c.498-.68.826-1.296.986-1.849l.08-.327a.37.37 0 0 1-.027-.163.574.574 0 0 0-.026-.189h-4.183c-.267.1-.48.252-.64.453l-.16.478c-.444 1.156-1.607 2.942-3.49 5.356a1.892 1.892 0 0 1-1.305.503z" fill="#231F20"/>
      </g>
      <defs><clipPath id="clip0_39117_13"><path fill="#fff" transform="translate(.741)" d="M0 0h28v22H0z"/></clipPath></defs>
    </svg>

    <!--Иконка Ютуб-->
    <svg id="icon-youtube" viewBox="0 0 25 19" fill="none" xmlns="http://www.w3.org/2000/svg">
      <path d="M16.592 8.793l-5.236-3.491a.655.655 0 0 0-1.015.545v6.982a.654.654 0 0 0 1.015.546l5.236-3.491a.654.654 0 0 0 0-1.091zm-4.942 2.814V7.07l3.404 2.27-3.404 2.268zm12.48-8.563a2.4 2.4 0 0 0-1.45-1.637C18.96-.022 12.991 0 12.74 0c-.25 0-6.218-.022-9.938 1.407a2.4 2.4 0 0 0-1.45 1.637C1.067 4.113.74 6.076.74 9.338c0 3.262.327 5.226.611 6.295a2.4 2.4 0 0 0 1.451 1.636c3.72 1.43 9.687 1.407 9.938 1.407h.077c.752 0 6.316-.043 9.861-1.407a2.4 2.4 0 0 0 1.451-1.636c.284-1.07.611-3.033.611-6.295s-.327-5.225-.61-6.294zm-1.265 12.261a1.09 1.09 0 0 1-.655.742c-3.49 1.342-9.403 1.32-9.469 1.32-.065 0-5.978.022-9.469-1.32a1.09 1.09 0 0 1-.654-.742c-.262-1.003-.568-2.847-.568-5.967 0-3.12.306-4.963.568-5.967a1.09 1.09 0 0 1 .654-.742c3.491-1.342 9.404-1.32 9.47-1.32.065 0 5.977-.022 9.468 1.32a1.092 1.092 0 0 1 .655.742c.262 1.004.567 2.847.567 5.967 0 3.12-.305 4.964-.567 5.968z" fill="#231F20"/>
    </svg>

    <!--Иконка ТГ-->
    <svg id="icon-telegram" viewBox="0 0 21 18" fill="none" xmlns="http://www.w3.org/2000/svg">
      <path fill-rule="evenodd" clip-rule="evenodd" d="M20.202 0.152905C20.3805 0.302216 20.4667 0.534898 20.4284 0.764481L17.8023 16.5214C17.7656 16.7411 17.6201 16.9273 17.4157 17.0159C17.2112 17.1045 16.9759 17.0833 16.7905 16.9597L8.91203 11.7074C8.75892 11.6054 8.65568 11.4437 8.62745 11.2619C8.59922 11.08 8.64859 10.8947 8.76354 10.751L11.3742 7.48773L7.01424 10.3944C6.81821 10.525 6.56718 10.5407 6.35645 10.4353L1.10414 7.80915C0.868904 7.69153 0.726558 7.44488 0.742411 7.18235C0.758263 6.91983 0.929255 6.6921 1.17694 6.60364L19.56 0.0382579C19.7792 -0.0400244 20.0234 0.00359465 20.202 0.152905ZM3.06747 7.32275L6.60289 9.09046L14.1643 4.0495C14.4337 3.86994 14.7937 3.91349 15.0124 4.1521C15.2312 4.3907 15.2434 4.75314 15.0412 5.00591L10.2362 11.0121L16.674 15.3039L18.9496 1.65058L3.06747 7.32275Z" fill="#231F20"/>
    </svg>


    <!--Иконка HTML Академии-->
    <svg id="icon-academy" viewBox="0 0 27 34" xmlns="http://www.w3.org/2000/svg">
      <path d="M13.7587 0H13.6592L0.21875 1.39589V26.0235L13.6592 34L27 26.0235V1.39589L13.7587 0ZM25.1084 12.0645L13.6592 5.28446V5.18475H13.5596L13.4601 5.08504V5.18475L2.11037 12.0645V3.09091L13.5596 1.89443L25.1084 3.09091V12.0645ZM13.5596 6.78006L25.0089 13.4604L20.5287 16.0528L13.4601 11.8651V13.261L19.334 16.7507L18.438 17.2493L13.4601 14.2581V15.654L17.2433 17.9472L16.4468 18.4457L13.4601 16.651V18.0469L15.3517 19.1437L13.5596 20.2405L2.20992 13.5601L13.5596 6.78006ZM2.11037 15.0557L13.4601 21.8358V22.8328L5.59492 18.1466V19.5425L13.5596 24.3284V25.4252L5.59492 20.739V22.1349L13.5596 26.9208L21.6239 22.0352V16.8504L25.0089 14.8563V24.827L13.5596 31.7067L2.11037 24.9267V15.0557Z"/>
    </svg>

</svg>
