<svg xmlns="http://www.w3.org/2000/svg">
  <style> :root svg:not(:target) { display: none } </style>
    <!--Иконка поиска-->
    <svg  id="icon-search" aria-hidden="true" focusable="false" width="18" height="18" viewBox="0 0 18 18" xmlns="http://www.w3.org/2000/svg">
      <path d="m17.693 16.057-3.477-3.477c1.023-1.33 1.534-2.966 1.534-4.705C15.75 3.477 12.273 0 7.875 0S0 3.477 0 7.875s3.477 7.875 7.875 7.875c1.739 0 3.375-.614 4.704-1.534l3.478 3.477c.204.205.409.307.818.307.614 0 1.125-.511 1.125-1.125 0-.204-.102-.511-.307-.818ZM2.25 7.875c0-3.068 2.557-5.625 5.625-5.625S13.5 4.807 13.5 7.875 10.943 13.5 7.875 13.5 2.25 10.943 2.25 7.875Z"/>
    </svg>

    <!--Иконка корзины-->
    <svg id="icon-cart" aria-hidden="true" focusable="false" width="21" height="18" viewBox="0 0 21 18" xmlns="http://www.w3.org/2000/svg">
      <path d="M20.188 6.857h-3.55L13.188.381C12.985 0 12.58-.095 12.174.095s-.507.572-.304.953l3.145 5.81H5.783l3.145-5.81c.202-.381 0-.762-.305-.953-.406-.19-.811 0-1.014.286l-3.45 6.476H.812c-.406 0-.812.286-.812.762 0 .381.304.762.812.762h.202l.914 2.857c-.203.095-.305.286-.305.572 0 .38.305.666.71.666L4.058 18h12.884l1.725-5.524c.405 0 .71-.286.71-.667 0-.19-.102-.476-.304-.57l.912-2.858h.203c.406 0 .812-.286.812-.762 0-.476-.406-.762-.812-.762Zm-4.565 9.62H5.073L3.854 12.38h13.087l-1.319 4.095Zm1.623-5.525H3.348l-.812-2.666h15.522l-.812 2.666Z"/>
    </svg>

    <!--Иконка меню-->
    <svg id="icon-menu" viewBox="0 0 20 14">
      <path d="M20 0H0v2h20V0zM20 6H0v2h20V6zM20 12H0v2h20v-2z" fill="#231F20"/>
    </svg>

    <!--Иконка закрытия меню-->
    <svg id="icon-menu-close" viewBox="0 0 21 20">
      <path d="M21 1.366L19.566 0 10.55 8.585 1.434 0 0 1.366l9.015 8.683L0 18.634 1.434 20l9.117-8.585L19.566 20 21 18.634l-9.015-8.585L21 1.366z" fill="#000"/>
    </svg>

    <!--Иконка предметы интерьера-->
    <svg id="icon-interior" viewBox="0 0 40 62" xmlns="http://www.w3.org/2000/svg">
    <g>
      <path d="M15.162 37.717c-.3.995-.2 2.19 0 3.582.499 2.588 1.696 5.971 2.394 9.654h5.087c.698-3.583 1.895-6.967 2.494-9.654.3-1.393.3-2.687 0-3.582-.3-.896-.898-1.593-1.995-2.29h-5.985c-1.197.697-1.796 1.394-1.995 2.29zM26.933 57.621H13.167c-1.297 0-2.294.995-2.294 2.19V62h18.354v-2.19c0-1.194-.998-2.189-2.294-2.189zM34.015 2.19h-11.67C22.344.994 21.346 0 20.05 0s-2.294.995-2.294 2.19H6.085L0 27.566c.798-.498 1.596-.995 2.594-.995 1.396 0 2.194.796 2.892 1.393.699.597 1.197.796 1.397.796.299 0 .798-.299 1.496-.796.698-.498 1.596-1.393 2.893-1.393 1.297 0 2.194.796 2.893 1.393.698.497 1.197.796 1.496.796.1 0 .3-.1.598-.199.2-.1.5-.398.898-.597.499-.398 1.097-.995 1.995-1.194.3-.1.599-.1.898-.1 1.297 0 2.194.796 2.893 1.393.698.498 1.197.797 1.496.797.3 0 .798-.299 1.396-.797.699-.597 1.596-1.393 2.893-1.393 1.397 0 2.195.796 2.893 1.393.3.299.598.498.898.598.2.1.399.199.598.199.3 0 .798-.299 1.397-.896.698-.597 1.596-1.393 2.892-1.393.998 0 1.796.497 2.594.995L34.015 2.189zM23.442 53.143h-6.883c-.699 0-1.098.497-1.098 1.094 0 .597.5 1.095 1.098 1.095h6.883c.698 0 1.097-.498 1.097-1.095.1-.597-.4-1.094-1.098-1.094z"/>
      <path d="M20.05 28.76c-.1 0-.3.1-.599.199-.2.1-.399.298-.598.398v3.682h2.294v-3.583c-.499-.398-.898-.696-1.097-.696z"/>
    </g>
    </svg>

    <!--Иконка детские игрушки-->
    <svg id="icon-toys" viewBox="0 0 60 60" xmlns="http://www.w3.org/2000/svg">
      <path d="M0 43.993L27.4 60V36.544L0 20.436v23.557zm51.3-31.51V15c0 1.812-3.5 3.322-7.7 3.322-4.3 0-7.7-1.51-7.7-3.322v-4.127c.3 1.71 3.6 3.12 7.7 3.12 4.3 0 7.7-1.51 7.7-3.322S47.8 7.35 43.6 7.35h-1l-5-2.92V7.55c0 1.812-3.5 3.323-7.7 3.323-2.7 0-5-.604-6.4-1.51-.2-.202-.4-.403-.7-.605-.4-.402-.6-.805-.6-1.208V4.53L17.4 7.35h-1.1c-4.3 0-7.7 1.51-7.7 3.322s3.5 3.322 7.7 3.322c4.1 0 7.4-1.41 7.7-3.12V15c0 1.812-3.5 3.322-7.7 3.322-4.3 0-7.7-1.51-7.7-3.322v-2.416l-6 3.523 27.5 16.108 27.4-16.007-6.2-3.725zM37.7 22.752c0 1.812-3.5 3.322-7.7 3.322-4.3 0-7.7-1.51-7.7-3.322v-4.128c.3 1.712 3.6 3.121 7.7 3.121s7.4-1.41 7.7-3.12v4.127zm-5.1 13.993V60L60 43.993V20.738L32.6 36.745zm-2.7-30.1c4.3 0 7.7-1.51 7.7-3.323C37.6 1.51 34.1 0 29.9 0c-4.3 0-7.7 1.51-7.7 3.322s3.4 3.322 7.7 3.322z"/>
    </svg>

    <!--Иконка цветок-->
    <svg id="icon-flower" viewBox="0 0 33 38">
      <path d="M16.5 38C25.575 38 33 30.645 33 21.656c-9.075 0-16.5 7.253-16.5 16.344zM4.744 16.65c0 2.554 2.062 4.495 4.537 4.495.928 0 1.856-.306 2.578-.817v.306c0 2.554 2.063 4.495 4.538 4.495 2.578 0 4.537-2.043 4.537-4.495v-.306c.722.51 1.65.817 2.578.817 2.579 0 4.538-2.043 4.538-4.494 0-1.84-1.031-3.371-2.578-4.086 1.547-.715 2.578-2.248 2.578-4.087 0-2.553-2.063-4.494-4.538-4.494-.928 0-1.856.306-2.578.817v-.306C20.934 1.94 18.872 0 16.397 0c-2.578 0-4.538 2.043-4.538 4.495V4.8a4.542 4.542 0 0 0-2.578-.817c-2.578 0-4.537 2.043-4.537 4.494 0 1.84 1.031 3.372 2.578 4.087-1.444.715-2.578 2.247-2.578 4.086zM16.5 7.969c2.578 0 4.538 2.043 4.538 4.494 0 2.554-2.063 4.495-4.538 4.495-2.578 0-4.537-2.043-4.537-4.495 0-2.451 1.959-4.494 4.537-4.494zM0 21.656C0 30.646 7.425 38 16.5 38c0-9.091-7.425-16.344-16.5-16.344z" fill="#63D1BB"/>
    </svg>


    <!--Иконка банкноты-->
    <svg id="icon-banknote" viewBox="0 0 47 27">
      <path d="M43.066 0H3.933C1.715 0 0 1.681 0 3.857v19.286C0 25.319 1.715 27 3.933 27h39.133C45.286 27 47 25.319 47 23.143V3.857C47 1.78 45.184 0 43.066 0zM3.026 24.725V2.77H43.57v21.956H3.026z" fill="#63D1BB"/><path d="M6.96 20.868h32.677V6.627H6.96v14.241zM23.5 8.506c2.925 0 5.346 2.373 5.346 5.242 0 2.868-2.421 5.241-5.346 5.241-2.925 0-5.346-2.373-5.346-5.242 0-2.967 2.421-5.241 5.346-5.241z" fill="#63D1BB"/>
    </svg>

    <!--Иконка сердце-->
    <svg viewBox="0 0 34 27">
      <path d="M34 8.45C34 3.788 29.982 0 25.036 0A9.248 9.248 0 0 0 17 4.662C15.558 1.942 12.467 0 8.964 0 4.018 0 0 3.788 0 8.45 0 17.288 15.146 27 17 27c1.958 0 17-9.615 17-18.55z" fill="#63D1BB"/>
    </svg>
    <svg id="icon-heart" viewBox="0 0 34 27">
      <path d="M34 8.45C34 3.788 29.982 0 25.036 0A9.248 9.248 0 0 0 17 4.662C15.558 1.942 12.467 0 8.964 0 4.018 0 0 3.788 0 8.45 0 17.288 15.146 27 17 27c1.958 0 17-9.615 17-18.55z" fill="#63D1BB"/>
    </svg>

    <!--Иконка клубок-->
    <svg id="icon-knot" viewBox="0 0 35 34">
      <path d="M0.305558 13.9528C-0.101853 16.0303 -0.101853 18.1079 0.305558 20.1854L4.48152 17.0196L0.305558 13.9528Z" fill="#63D1BB"/>
      <path d="M24.852 1.586C19.9631 -0.590493 14.2594 -0.590493 9.26857 1.98172L16.9075 7.52187L24.852 1.586Z" fill="#63D1BB"/>
      <path d="M34.528 13.062L29.6391 16.7225L34.6299 20.3829C35.1392 18.0086 35.1392 15.4364 34.528 13.062Z" fill="#63D1BB"/>
      <path d="M9.37046 32.057C14.2594 34.5303 20.2687 34.7281 25.3613 32.1559L17.1113 26.1211L9.37046 32.057Z" fill="#63D1BB"/>
      <path d="M8.04639 14.2488L1.73152 9.698C1.42596 10.3905 1.1204 11.083 0.916698 11.7756L6.31489 15.7328L8.04639 14.2488Z" fill="#63D1BB"/>
      <path d="M18.9446 24.8349L27.3983 30.9686C27.7039 30.7707 28.0095 30.5729 28.2132 30.375C28.5187 30.1772 28.8243 29.8804 29.1298 29.5836L20.6761 23.4498L18.9446 24.8349Z" fill="#63D1BB"/>
      <path d="M11.6112 11.5781L4.07412 6.13684C3.56486 6.6315 3.15745 7.22509 2.75003 7.81867L9.77787 12.9631L11.6112 11.5781Z" fill="#63D1BB"/>
      <path d="M22.5094 22.1635L30.7595 28.1983C31.2688 27.7036 31.6762 27.11 32.0836 26.5165L24.2409 20.7784L22.5094 22.1635Z" fill="#63D1BB"/>
      <path d="M15.176 8.90696L7.33339 3.16895C7.12969 3.26788 6.92598 3.46574 6.72228 3.56467C6.31487 3.86146 5.90746 4.15826 5.6019 4.55398L13.4446 10.1931L15.176 8.90696Z" fill="#63D1BB"/>
      <path d="M26.0743 19.3936L33.204 24.538C33.5095 23.8455 33.8151 23.2519 34.1206 22.5594L27.9076 18.0085L26.0743 19.3936Z" fill="#63D1BB"/>
      <path d="M26.8891 2.67419L0.916698 22.3615C1.1204 23.054 1.42596 23.7466 1.73152 24.4391L28.7225 3.9603C28.2132 3.46564 27.6021 3.06992 26.8891 2.67419Z" fill="#63D1BB"/>
      <path d="M31.2688 6.53234C30.9632 6.13661 30.6576 5.74089 30.3521 5.44409L2.85186 26.2197C3.05557 26.7143 3.36113 27.11 3.66669 27.4068C3.76854 27.6047 3.97224 27.8026 4.0741 27.9015L31.778 7.12592C31.5743 6.92806 31.4725 6.7302 31.2688 6.53234Z" fill="#63D1BB"/>
      <path d="M32.8984 8.90674L5.70373 29.4844C6.21299 29.9791 6.82411 30.4738 7.43522 30.8695L33.9169 10.8854C33.6114 10.1928 33.3058 9.50033 32.8984 8.90674Z" fill="#63D1BB"/>
    </svg>

    <!--Иконка ракета-->
    <svg id="icon-rocket" viewBox="0 0 55 23">
      <path d="M40.9467 5.75002C37.307 4.75864 33.0607 4.06466 28.41 4.06466C25.478 4.06466 22.8493 4.26294 20.625 4.65949L13.75 0H0.10114L5.9651 6.14656H14.4577C9.80697 7.73277 7.58272 9.61639 7.58272 9.61639V13.3836C7.58272 13.3836 9.90811 15.2672 14.5588 16.8534H5.86396L0 23H13.6489L20.5239 18.3405C22.8492 18.7371 25.3768 18.9354 28.3088 18.9354C32.8584 18.9354 37.1048 18.2414 40.8456 17.25C39.6324 15.4655 38.9246 13.5819 38.9246 11.4009C39.0257 9.4181 39.8345 7.5345 40.9467 5.75002Z" fill="#63D1BB"/>
      <path d="M44.4853 6.74121C43.1709 8.32742 42.4632 9.91361 42.4632 11.4998C42.4632 13.086 43.1709 14.6722 44.4853 16.2585C50.9559 14.0774 55 11.4998 55 11.4998C55 11.4998 50.9559 8.92224 44.4853 6.74121Z" fill="#63D1BB"/>
    </svg>

    <!--Иконка подарок-->
    <svg id="icon-gift" viewBox="0 0 33 32">
      <path d="M3.028 32h12.614V18.272H3.028V32zM31.385 8.691h-7.367c.505-.296 1.01-.493 1.413-.79 1.615-1.086 2.422-2.568 2.422-3.95 0-1.186-.605-2.173-1.413-2.865C25.633.396 24.523 0 23.413 0c-1.211 0-2.422.395-3.33 1.086-1.514.988-2.624 2.47-3.432 4.05 0 .099-.1.197-.1.197-.303-.592-.606-1.185-1.01-1.777-.706-.988-1.514-1.877-2.523-2.47C12.01.494 10.9 0 9.688 0c-1.21 0-2.321.494-3.23 1.284-.807.79-1.412 1.876-1.412 3.062 0 .691.202 1.481.605 2.173.606.888 1.413 1.58 2.624 2.172h-6.66C.706 8.691 0 9.383 0 10.271V16.1h15.541V8.69h1.918V16.1H33v-5.827c0-.89-.706-1.58-1.615-1.58zM8.881 6.42c-.606-.395-1.01-.79-1.211-1.087-.202-.395-.303-.691-.303-.987 0-.494.202-.988.706-1.482.404-.395 1.01-.691 1.615-.691.707 0 1.413.197 2.018.691a7.6 7.6 0 0 1 2.624 3.16c.303.692.606 1.383.808 2.075-3.129-.297-5.147-.988-6.257-1.68zm10.596-1.58c.606-.79 1.211-1.482 1.918-1.877.706-.494 1.412-.691 2.018-.691.605 0 1.11.197 1.514.493.403.297.605.692.605 1.186 0 .493-.303 1.284-1.514 2.074-1.11.79-3.128 1.679-6.156 2.271a10.88 10.88 0 0 1 1.615-3.456zM17.46 32h12.614V18.272H17.46V32z" fill="#63D1BB"/>
    </svg>

    <!--Иконка стрелка влево-->
    <svg id="icon-arrow-left" viewBox="0 0 50 26">
      <path d="M50 11H7.7L15.8 2.8L13 0L0 13L13 26L15.8 23.2L7.7 15H50V11Z"/>
    </svg>


    <!--Иконка флажок-->
    <svg id="icon-flag" viewBox="0 0 47 81">
      <path d="M7.76611 3.86183V42.3812L47 23.072L7.76611 3.86183ZM0 80.9005V0H3.83261V80.9005H0Z" fill="#63D1BB"/>
      <path d="M3.83262 0.0996094H0V81.0001H3.83262V0.0996094Z" fill="#231F20"/>
    </svg>

    <!--Иконка -->
    <svg id="icon-logo-footer" viewBox="0 0 102 34" fill="none" xmlns="http://www.w3.org/2000/svg">
      <path d="M19.22 21.381c-.1-2.685-.5-5.27-.5-7.956 0-2.187.4-4.375-.4-6.464 0-.199.1-.497.1-.696.2-.994-3.3-.497-3.8.497-.3.299-.5.597-.4.995 0 .1.1.199.1.298-.7 3.183-1.6 6.265-2.6 9.348-.4 1.194-.9 2.288-1.3 3.481-.6-1.094-1.2-2.188-1.6-3.381-1.4-3.381-2.6-6.862-4.3-10.144.2-1.492-3.2-1.392-3.9 0-.8 1.69-.7 3.381-.4 5.171.3 1.99.4 3.978.4 6.067 0 3.978.4 7.856.4 11.834-.4.398-.5.895-.1 1.392.2.2.4.398.6.498 1 .696 3.6.099 3.6-1.293 0-4.078-.3-8.155-.4-12.332v-1.193c.1.1.1.298.2.398.6 1.59 1.3 3.182 2.2 4.674.9 1.491 1.3 3.082 1.8 4.674-.2.199-.3.497-.2.696 0 .199.1.298.3.398.6.497 1.8.298 2.5 0 .3-.1.6-.299.8-.398.3-.2.9-.696.7-1.194 0-.099-.1-.198-.1-.298.5-1.293.7-2.585 1-3.878.3-1.393.8-2.785 1.3-4.078.1.597.1 1.194.2 1.89.2 2.585 0 5.072 0 7.558 0 .795.1 1.591.2 2.486.1.298.4 1.79.3 1.89-.8.497-.6 1.093.2 1.292.9.2 2.1-.1 2.8-.696 1.2-1.094.6-2.784.4-4.177-.5-2.386 0-4.972-.1-7.359ZM27.62 22.078c-.1-1.99-.8-3.879-.8-5.868 0-2.287.2-4.574-.2-6.862-.1-.696-4.1.1-3.9.995.3 2.088.2 4.177.2 6.364 0 1.99.5 3.879.7 5.868.3 2.088-.1 4.177.1 6.166.1.994.8 2.685.1 3.58-.4.497 1.5.298 1.6.298.8-.1 1.8-.398 2.3-.994.7-.796.2-2.387.1-3.382-.3-1.989-.1-4.176-.2-6.165ZM43.92 18.796c-2.1-2.785-5.9-.796-8.6-1.492-1.4-.398-1.4-2.287-1.4-3.381 0-1.393-.1-2.685-.3-4.078-.1-1.094 0-2.088.7-2.884.1-.1.9-.298.8-.298.4-.1.7-.1 1.1-.1 1.5-.099 4.6.2 4 2.487-.3.994 3.6.398 3.9-.597 1.2-4.575-7.3-3.68-9.7-3.083-2.2.597-4.6 1.79-4.8 4.376-.1 1.193.3 2.387.3 3.58.1 1.392-.2 2.785.3 4.077 1.1 2.984 5.5 1.591 7.8 1.691 3.8.298 2.7 5.47 2.7 7.856 0 1.293 1.2 3.382.2 4.476-.6.696-2 .696-2.8.795-.8.1-2.2.298-2.7-.497-1-1.392.1-3.78-.1-5.37-.1-.895-4.1-.1-3.9.994.3 2.586-1.4 6.066 2.4 6.564 2.4.298 5.2-.2 7.5-.895 1.2-.398 2.3-.895 3.2-1.79 1-.895.7-2.288.4-3.481-.5-3.083.9-6.464-1-8.95ZM61.32 18.597c-.1-3.78-.7-7.459-.7-11.238 0-1.989-4-1.293-4 .298 0 3.58.5 7.16.7 10.74v.2c-1.9 0-3.9.198-5.9.198.2-4.574-.6-9.149-.4-13.823 0-.596-3.9-.1-3.9.995-.2 4.475.6 8.85.5 13.326-.1 2.088-.2 4.276-.3 6.364 0 1.094.2 2.188.3 3.282.1.995.5 2.288.2 3.282-.2.796 3.6.298 3.9-.696.5-1.79-.2-3.978-.4-5.768-.2-1.69 0-3.48.1-5.171 2-.1 4.1-.299 6.1 0 .1 1.392.2 2.784.3 4.077.1 1.193.2 2.287.2 3.48 0 .995.1 2.487-.2 3.481-.8 2.089 3.1 1.89 3.7.398.7-1.89.5-4.177.4-6.166-.2-2.486-.6-4.873-.6-7.26ZM78.22 22.973c-.9-2.785-2.4-5.171-3.6-7.757 1-1.89 2-3.878 2.9-5.867.8-1.79 1.4-3.78 3.1-5.072.6-.398.6-.895-.3-.995-.9-.1-2.1.2-2.8.696-1.4 1.293-2.4 2.685-3.1 4.376-.9 2.089-1.9 4.077-2.9 6.066-.1.1-.1.299-.2.398-.5.299-.8.796-.6 1.293-.8 1.591-1.6 3.083-2.5 4.575-.3-5.47-1-11.04-1.2-16.509 0-1.293-4-.497-3.9.995.2 6.862 1.2 13.624 1.3 20.486v.1c-.3.298-.2.497.1.596 0 1.79-.1 3.48-.2 5.27-.5.697.5 1.095 1.1 1.095h.1c.7 0 2.6-.299 2.7-1.393.2-2.088.3-4.176.2-6.265 1.6-1.69 2.9-3.58 4.1-5.569.8 1.492 1.5 2.984 2 4.575.9 2.685 2.3 5.27 3.1 7.956.5 1.79 4.5.696 3.9-.995-1-2.784-2.4-5.27-3.3-8.055ZM101.721 18.398c-.2-.795-1.4-.795-2.3-.795v-.995c-.1-2.685-.2-5.37-.4-7.956-.2-2.486-1.6-3.281-4-3.182-2.4.1-5.2.497-7.5 1.392-2.6.995-4.1 2.884-4.6 5.669-.5 2.983.2 6.166.4 9.149.2 3.48.1 6.961.1 10.442 0 .597 3.9 0 3.9-.994v-8.255c0-.795-.1-1.59-.1-2.386 1.4-.597 3.7 0 5.1.1 1.1.099 2.2-.2 3.2-.3 0 2.288.1 4.575.2 6.863 0 1.193.5 3.48-.4 4.475-.4.497 1.5.298 1.6.298.8-.1 1.8-.398 2.3-.994.9-1.094.5-3.78.4-5.072-.1-1.89-.1-3.78-.1-5.669 1.1-.199 2.4-.895 2.2-1.79Zm-14.6-.1c-.1-1.192-.2-2.485-.3-3.679-.2-2.287.1-5.569 2.3-6.961.6-.398 1.7-.298 2.4-.398 1-.199 2-.398 2.8.199 1.2.796.9 3.68.9 4.873 0 1.989.2 3.978.3 5.967-.6.1-1.1.1-1.7.1-2.3-.2-4.6-.597-6.7-.1ZM24.22 6.663c.5-.1 1-.199 1.5-.497l.2-.2c.5-.297 1-.795.7-1.391-.5-1.094-.4-2.188-.4-3.382C26.22.2 25.22 0 24.42 0c-.7.1-2.2.597-2.2 1.492 0 .994-.1 1.989.1 2.983 0 .1-.1.199-.1.398-.1.199 0 .398.1.597v.397c.1.2.2.398.4.498.6.298 1.1.298 1.5.298Z" fill="#000"/>
    </svg>

    <!--Иконка ВК-->
    <svg id="icon-vk" viewBox="0 0 29 22" fill="none" xmlns="http://www.w3.org/2000/svg">
      <g clip-path="url(#clip0_39117_13)"><path d="M1.741 5.339c0-.855.515-1.316 1.546-1.383l3.97.025a.52.52 0 0 1 .532.377c.409 1.257.866 2.343 1.372 3.257.507.913 1.168 1.965 1.985 3.156.071.15.187.226.347.226.124 0 .222-.059.293-.176l.08-.277.026-4.35c0-.302-.075-.503-.226-.604-.151-.1-.43-.176-.84-.226-.32-.05-.479-.235-.479-.553 0-.067.009-.118.027-.151.373-1.09 1.438-1.635 3.197-1.635L15.063 3c.675 0 1.234.16 1.678.478.444.318.666.821.666 1.509v5.708c.125.084.24.126.347.126.266 0 .497-.15.692-.453 1.954-2.582 3.011-4.308 3.171-5.18 0-.017.018-.059.053-.126.125-.251.329-.47.613-.654.284-.184.533-.31.746-.377a.555.555 0 0 1 .24-.05h4.13l.266.025c.355 0 .63.16.826.478.071.1.12.21.147.327.026.117.044.234.053.352.009.117.013.184.013.2v.177c-.124.687-.44 1.42-.946 2.2-.506.78-1.15 1.622-1.931 2.528-.782.905-1.27 1.5-1.466 1.785-.16.201-.24.386-.24.553 0 .135.072.286.214.453l3.89 4.627c.213.269.32.562.32.88 0 .386-.16.705-.48.956-.32.252-.702.394-1.146.428l-.453.025h-4.05a.855.855 0 0 0-.106.012.862.862 0 0 1-.107.013c-.39 0-.755-.16-1.092-.478-.125-.134-.96-1.123-2.505-2.967a1.387 1.387 0 0 0-.373-.327c-.07.268-.164.654-.28 1.157-.115.503-.2.863-.252 1.081l-.08.427c-.178.587-.551.94-1.12 1.057l-.372.025h-2.612c-1.474 0-2.944-.637-4.409-1.911-1.465-1.275-2.784-2.922-3.956-4.942-1.173-2.02-2.265-4.372-3.278-7.054a1.916 1.916 0 0 1-.133-.73zm16.013 6.513c-.373 0-.71-.096-1.013-.29-.302-.192-.453-.456-.453-.791V4.987c0-.336-.088-.575-.266-.717-.178-.143-.488-.214-.932-.214l-1.52.05c-.763 0-1.34.126-1.731.378.781.352 1.172.922 1.172 1.71v4.426a1.5 1.5 0 0 1-.533 1.044 1.59 1.59 0 0 1-1.065.414c-.533 0-.942-.243-1.226-.729-1.385-1.978-2.416-3.856-3.09-5.633l-.24-.654-3.544-.025c-.23 0-.36.013-.386.038-.027.025-.04.096-.04.213 0 .151.018.31.053.478l.56 1.409c1.492 3.638 3.112 6.505 4.862 8.6 1.75 2.096 3.468 3.144 5.155 3.144h2.665c.106 0 .186-.03.24-.088.053-.06.097-.172.133-.34l.053-.251.506-2.213c.142-.302.267-.503.373-.604a.976.976 0 0 1 .693-.277c.426 0 .862.243 1.306.73l2.264 2.716c.142.218.293.327.453.327H26.6c.533 0 .8-.126.8-.378a.466.466 0 0 0-.08-.251l-3.863-4.552c-.302-.352-.453-.73-.453-1.131 0-.403.142-.788.426-1.157.23-.336.68-.893 1.345-1.673A37.63 37.63 0 0 0 26.52 7.59c.498-.68.826-1.296.986-1.849l.08-.327a.37.37 0 0 1-.027-.163.574.574 0 0 0-.026-.189h-4.183c-.267.1-.48.252-.64.453l-.16.478c-.444 1.156-1.607 2.942-3.49 5.356a1.892 1.892 0 0 1-1.305.503z" fill="#231F20"/>
      </g>
      <defs><clipPath id="clip0_39117_13"><path fill="#fff" transform="translate(.741)" d="M0 0h28v22H0z"/></clipPath></defs>
    </svg>

    <!--Иконка Ютуб-->
    <svg id="icon-youtube" viewBox="0 0 25 19" fill="none" xmlns="http://www.w3.org/2000/svg">
      <path d="M16.592 8.793l-5.236-3.491a.655.655 0 0 0-1.015.545v6.982a.654.654 0 0 0 1.015.546l5.236-3.491a.654.654 0 0 0 0-1.091zm-4.942 2.814V7.07l3.404 2.27-3.404 2.268zm12.48-8.563a2.4 2.4 0 0 0-1.45-1.637C18.96-.022 12.991 0 12.74 0c-.25 0-6.218-.022-9.938 1.407a2.4 2.4 0 0 0-1.45 1.637C1.067 4.113.74 6.076.74 9.338c0 3.262.327 5.226.611 6.295a2.4 2.4 0 0 0 1.451 1.636c3.72 1.43 9.687 1.407 9.938 1.407h.077c.752 0 6.316-.043 9.861-1.407a2.4 2.4 0 0 0 1.451-1.636c.284-1.07.611-3.033.611-6.295s-.327-5.225-.61-6.294zm-1.265 12.261a1.09 1.09 0 0 1-.655.742c-3.49 1.342-9.403 1.32-9.469 1.32-.065 0-5.978.022-9.469-1.32a1.09 1.09 0 0 1-.654-.742c-.262-1.003-.568-2.847-.568-5.967 0-3.12.306-4.963.568-5.967a1.09 1.09 0 0 1 .654-.742c3.491-1.342 9.404-1.32 9.47-1.32.065 0 5.977-.022 9.468 1.32a1.092 1.092 0 0 1 .655.742c.262 1.004.567 2.847.567 5.967 0 3.12-.305 4.964-.567 5.968z" fill="#231F20"/>
    </svg>

    <!--Иконка ТГ-->
    <svg id="icon-telegram" viewBox="0 0 21 18" fill="none" xmlns="http://www.w3.org/2000/svg">
      <path fill-rule="evenodd" clip-rule="evenodd" d="M20.202 0.152905C20.3805 0.302216 20.4667 0.534898 20.4284 0.764481L17.8023 16.5214C17.7656 16.7411 17.6201 16.9273 17.4157 17.0159C17.2112 17.1045 16.9759 17.0833 16.7905 16.9597L8.91203 11.7074C8.75892 11.6054 8.65568 11.4437 8.62745 11.2619C8.59922 11.08 8.64859 10.8947 8.76354 10.751L11.3742 7.48773L7.01424 10.3944C6.81821 10.525 6.56718 10.5407 6.35645 10.4353L1.10414 7.80915C0.868904 7.69153 0.726558 7.44488 0.742411 7.18235C0.758263 6.91983 0.929255 6.6921 1.17694 6.60364L19.56 0.0382579C19.7792 -0.0400244 20.0234 0.00359465 20.202 0.152905ZM3.06747 7.32275L6.60289 9.09046L14.1643 4.0495C14.4337 3.86994 14.7937 3.91349 15.0124 4.1521C15.2312 4.3907 15.2434 4.75314 15.0412 5.00591L10.2362 11.0121L16.674 15.3039L18.9496 1.65058L3.06747 7.32275Z" fill="#231F20"/>
    </svg>


    <!--Иконка HTML Академии-->
    <svg id="icon-academy" viewBox="0 0 27 34" xmlns="http://www.w3.org/2000/svg">
      <path d="M13.7587 0H13.6592L0.21875 1.39589V26.0235L13.6592 34L27 26.0235V1.39589L13.7587 0ZM25.1084 12.0645L13.6592 5.28446V5.18475H13.5596L13.4601 5.08504V5.18475L2.11037 12.0645V3.09091L13.5596 1.89443L25.1084 3.09091V12.0645ZM13.5596 6.78006L25.0089 13.4604L20.5287 16.0528L13.4601 11.8651V13.261L19.334 16.7507L18.438 17.2493L13.4601 14.2581V15.654L17.2433 17.9472L16.4468 18.4457L13.4601 16.651V18.0469L15.3517 19.1437L13.5596 20.2405L2.20992 13.5601L13.5596 6.78006ZM2.11037 15.0557L13.4601 21.8358V22.8328L5.59492 18.1466V19.5425L13.5596 24.3284V25.4252L5.59492 20.739V22.1349L13.5596 26.9208L21.6239 22.0352V16.8504L25.0089 14.8563V24.827L13.5596 31.7067L2.11037 24.9267V15.0557Z"/>
    </svg>

</svg>
